# File created by Blade
# Date/Time:  Wed Jan 21 14:37:25 2015
#---------------------------------------------------------
:version 1.10
:name HOM
:units
  mass 1.0
  length 1.000000
  angle deg
:documentation
     Acclaim Skeleton File
:root
   axis xyz
   order TX TY TZ RX RY RZ
   position 0.000000 0.000000 0.000000
   orientation 0 0 0
:bonedata
   begin
      id 1
      name Spine_dum
      direction 0.000000 1.000000 0.000000
      length 7.067664
      axis 0.0 0.0 0.0 xyz
   end
   begin
      id 2
      name LeftUpLeg_dum
      direction 1.000000 0.000000 0.000000
      length 4.013002
      axis 0.0 0.0 0.0 xyz
   end
   begin
      id 3
      name RightUpLeg_dum
      direction -1.000000 0.000000 0.000000
      length 4.013002
      axis 0.0 0.0 0.0 xyz
   end
   begin
      id 4
      name Spine
      direction 0.000000 1.000000 0.000000
      length 0.000000
      axis 0.0 0.0 0.0 xyz
      dof rx ry rz
   end
   begin
      id 5
      name Spine_dum1
      direction 0.000000 1.000000 0.000000
      length 15.039886
      axis 0.0 0.0 0.0 xyz
   end
   begin
      id 6
      name Spine_dum2
      direction 0.000000 1.000000 0.000000
      length 10.530368
      axis 0.0 0.0 0.0 xyz
   end
   begin
      id 7
      name Spine_dum3
      direction 0.000000 1.000000 0.000000
      length 10.530368
      axis 0.0 0.0 0.0 xyz
   end
   begin
      id 8
      name Head
      direction 0.000000 1.000000 0.000000
      length 4.527550
      axis 0.0 0.0 0.0 xyz
      dof rx ry rz
   end
   begin
      id 9
      name LeftShoulder
      direction 1.000000 0.000000 0.000000
      length 7.028855
      axis 0.0 0.0 -90.0 xyz
      dof rx ry rz
   end
   begin
      id 10
      name LeftArm
      direction 1.000000 0.000000 0.000000
      length 10.797705
      axis 0.0 0.0 -90.0 xyz
      dof rx ry rz
   end
   begin
      id 11
      name LeftForeArm
      direction 1.000000 0.000000 0.000000
      length 7.907442
      axis 0.0 0.0 -90.0 xyz
      dof ry rz rx
   end
   begin
      id 12
      name LeftHand
      direction 0.000000 0.000000 0.000000
      length 0.000000
      axis 0.0 0.0 -90.0 xyz
      dof rx ry rz
   end
   begin
      id 13
      name LeftHand_dum1
      direction 0.000000 0.000000 0.000000
      length 0.000000
      axis 0.0 0.0 -90.0 xyz
   end
   begin
      id 14
      name LeftHand_dum2
      direction 1.000000 0.000000 0.000000
      length 3.937000
      axis 0.0 0.0 -90.0 xyz
   end
   begin
      id 15
      name LeftHandThumb1
      direction 0.000000 0.000000 1.000000
      length 3.937000
      axis 0.0 0.0 -90.0 xyz
      dof rx rz ry
   end
   begin
      id 16
      name RightShoulder
      direction -1.000000 0.000000 0.000000
      length 7.028855
      axis 0.0 0.0 90.0 xyz
      dof rx ry rz
   end
   begin
      id 17
      name RightArm
      direction -1.000000 0.000000 0.000000
      length 10.797705
      axis 0.0 0.0 90.0 xyz
      dof rx ry rz
   end
   begin
      id 18
      name RightForeArm
      direction -1.000000 0.000000 0.000000
      length 7.907442
      axis 0.0 0.0 90.0 xyz
      dof ry rz rx
   end
   begin
      id 19
      name RightHand
      direction 0.000000 0.000000 0.000000
      length 0.000000
      axis 0.0 0.0 90.0 xyz
      dof rx ry rz
   end
   begin
      id 20
      name RightHand_dum1
      direction 0.000000 0.000000 0.000000
      length 0.000000
      axis 0.0 0.0 90.0 xyz
   end
   begin
      id 21
      name RightHand_dum2
      direction -1.000000 0.000000 0.000000
      length 3.937000
      axis 0.0 0.0 90.0 xyz
   end
   begin
      id 22
      name RightHandThumb1
      direction 0.000000 0.000000 1.000000
      length 3.937000
      axis 0.0 0.0 90.0 xyz
      dof rx rz ry
   end
   begin
      id 23
      name LeftUpLeg
      direction 0.000000 -1.000000 0.000000
      length 16.899758
      axis 0.0 0.0 0.0 xyz
      dof rx ry rz
   end
   begin
      id 24
      name LeftLeg
      direction 0.000000 -1.000000 0.000000
      length 17.389183
      axis 0.0 0.0 0.0 xyz
      dof rx ry rz
   end
   begin
      id 25
      name LeftFoot
      direction 0.000000 -0.258819 0.965926
      length 4.924528
      axis 15.0 0.0 0.0 xyz
      dof rx ry rz
   end
   begin
      id 26
      name LeftToeBase
      direction 0.000000 0.000000 1.000000
      length 2.952750
      axis 0.0 0.0 0.0 xyz
      dof rx ry rz
   end
   begin
      id 27
      name RightUpLeg
      direction 0.000000 -1.000000 0.000000
      length 16.899758
      axis 0.0 0.0 0.0 xyz
      dof rx ry rz
   end
   begin
      id 28
      name RightLeg
      direction 0.000000 -1.000000 0.000000
      length 17.389183
      axis 0.0 0.0 0.0 xyz
      dof rx ry rz
   end
   begin
      id 29
      name RightFoot
      direction 0.000000 -0.258819 0.965926
      length 4.924528
      axis 15.0 0.0 0.0 xyz
      dof rx ry rz
   end
   begin
      id 30
      name RightToeBase
      direction 0.000000 0.000000 1.000000
      length 2.952750
      axis 0.0 0.0 0.0 xyz
      dof rx ry rz
   end
:hierarchy
   begin
      root Spine_dum LeftUpLeg_dum RightUpLeg_dum
      Spine_dum Spine
      LeftUpLeg_dum LeftUpLeg
      RightUpLeg_dum RightUpLeg
      Spine Spine_dum1 Spine_dum2 Spine_dum3
      Spine_dum1 Head
      Spine_dum2 LeftShoulder
      Spine_dum3 RightShoulder
      LeftShoulder LeftArm
      LeftArm LeftForeArm
      LeftForeArm LeftHand
      LeftHand LeftHand_dum1 LeftHand_dum2
      LeftHand_dum1 LeftHandThumb1
      RightShoulder RightArm
      RightArm RightForeArm
      RightForeArm RightHand
      RightHand RightHand_dum1 RightHand_dum2
      RightHand_dum1 RightHandThumb1
      LeftUpLeg LeftLeg
      LeftLeg LeftFoot
      LeftFoot LeftToeBase
      RightUpLeg RightLeg
      RightLeg RightFoot
      RightFoot RightToeBase
   end

# File created by Blade
# Date/Time:  Wed Jan 21 14:37:15 2015
# Frame Rate: 120.000 fps
#------------------------------------------------------
:FULLY-SPECIFIED
:DEGREES
64
root 18.572016 35.503118 -21.664200 -172.358212 -2.714594 -178.751395
Spine -17.490723 0.227551 0.161955
Head 7.521437 -3.473564 2.273390
LeftShoulder -10.049213 -36.766160 18.430692
LeftArm 2.443722 6.704551 -10.893167
LeftForeArm 7.290331 -0.000000 -2.050821
LeftHand -10.109412 -0.000000 -7.024637
LeftHandThumb1 -26.253704 0.000000 33.147579
RightShoulder -10.329732 2.036824 -9.136401
RightArm 8.191510 35.252067 11.869766
RightForeArm -38.181030 0.000000 3.997685
RightHand -5.888664 -0.000000 9.279906
RightHandThumb1 -24.326973 -0.000000 -32.862282
LeftUpLeg -0.354801 11.039508 1.300046
LeftLeg -6.426510 -0.000000 0.000000
LeftFoot -19.741768 29.729051 -11.053349
LeftToeBase 27.275757 -0.000000 -0.000000
RightUpLeg -1.001019 -8.260950 1.311637
RightLeg -3.415704 -0.000000 0.000000
RightFoot -20.507603 -27.425244 13.397604
RightToeBase 24.079127 -0.000000 -0.000000
65
root 18.574172 35.503229 -21.655246 -172.435836 -2.745156 -178.745993
Spine -17.445552 0.300843 0.128804
Head 7.577826 -3.614634 2.293196
LeftShoulder -9.767013 -36.741884 17.960586
LeftArm 2.647776 6.918700 -11.217745
LeftForeArm 6.072029 -0.000000 -1.956752
LeftHand -10.038227 -0.000000 -7.119816
LeftHandThumb1 -26.253704 0.000000 33.147579
RightShoulder -10.152857 2.075401 -8.913739
RightArm 8.499661 34.868688 11.964140
RightForeArm -38.120764 0.000000 4.033556
RightHand -5.849474 -0.000000 9.248427
RightHandThumb1 -24.326973 -0.000000 -32.862282
LeftUpLeg -0.301081 11.025537 1.323002
LeftLeg -6.418371 -0.000000 0.000000
LeftFoot -19.717806 29.720069 -11.014696
LeftToeBase 27.239587 -0.000000 -0.000000
RightUpLeg -0.940603 -8.281705 1.313551
RightLeg -3.405187 -0.000000 0.000000
RightFoot -20.503739 -27.437822 13.398831
RightToeBase 24.056194 -0.000000 -0.000000
66
root 18.576759 35.503988 -21.646808 -172.506531 -2.779986 -178.737639
Spine -17.426887 0.333550 0.107400
Head 7.661806 -3.697912 2.319471
LeftShoulder -9.533157 -36.679832 17.522774
LeftArm 2.852792 7.154369 -11.569531
LeftForeArm 4.539726 0.000000 -1.816259
LeftHand -10.051025 0.000000 -7.411581
LeftHandThumb1 -26.253704 0.000000 33.147579
RightShoulder -9.889959 2.160669 -8.720410
RightArm 8.760921 34.384939 12.059126
RightForeArm -38.018746 -0.000000 4.071580
RightHand -5.904413 -0.000000 9.160011
RightHandThumb1 -24.326973 -0.000000 -32.862282
LeftUpLeg -0.257323 11.018395 1.348522
LeftLeg -6.404148 -0.000000 0.000000
LeftFoot -19.706640 29.703713 -10.986697
LeftToeBase 27.286470 -0.000000 -0.000000
RightUpLeg -0.880975 -8.296620 1.321920
RightLeg -3.404624 -0.000000 0.000000
RightFoot -20.494949 -27.468031 13.401228
RightToeBase 24.034622 -0.000000 -0.000000
67
root 18.578925 35.504398 -21.637418 -172.579108 -2.822354 -178.736802
Spine -17.399735 0.409496 0.056998
Head 7.713244 -3.804101 2.374820
LeftShoulder -9.264852 -36.645307 17.071822
LeftArm 3.090715 7.392577 -11.978163
LeftForeArm 2.568501 0.000000 -1.724072
LeftHand -9.947485 -0.000000 -7.679651
LeftHandThumb1 -26.253704 0.000000 33.147579
RightShoulder -9.676427 2.226734 -8.525701
RightArm 9.075239 34.103667 12.228298
RightForeArm -38.097025 -0.000000 4.155720
RightHand -5.830990 -0.000000 9.167275
RightHandThumb1 -24.326973 -0.000000 -32.862282
LeftUpLeg -0.211607 10.997459 1.365716
LeftLeg -6.395210 -0.000000 0.000000
LeftFoot -19.688814 29.701075 -10.962833
LeftToeBase 27.273113 -0.000000 -0.000000
RightUpLeg -0.827344 -8.345375 1.324826
RightLeg -3.391409 -0.000000 0.000000
RightFoot -20.498515 -27.473388 13.404574
RightToeBase 24.033993 -0.000000 -0.000000
68
root 18.581016 35.504905 -21.627035 -172.665309 -2.872831 -178.733254
Spine -17.351755 0.462164 0.023218
Head 7.775531 -3.921112 2.408146
LeftShoulder -9.015243 -36.614495 16.585474
LeftArm 3.351141 7.342787 -12.378856
LeftForeArm 0.615742 -0.000000 -1.616537
LeftHand -9.865606 -0.000000 -8.145001
LeftHandThumb1 -26.253704 0.000000 33.147579
RightShoulder -9.450365 2.272196 -8.332777
RightArm 9.430180 33.677302 12.414312
RightForeArm -38.011456 -0.000000 4.310222
RightHand -5.918721 -0.000000 9.191556
RightHandThumb1 -24.326973 -0.000000 -32.862282
LeftUpLeg -0.156865 10.968498 1.390047
LeftLeg -6.378597 -0.000000 0.000000
LeftFoot -19.660124 29.681784 -10.919069
LeftToeBase 27.298124 -0.000000 -0.000000
RightUpLeg -0.758648 -8.395499 1.327845
RightLeg -3.380479 -0.000000 0.000000
RightFoot -20.492579 -27.471547 13.414967
RightToeBase 23.999385 -0.000000 -0.000000
69
root 18.582826 35.506039 -21.615740 -172.744739 -2.917393 -178.731760
Spine -17.325123 0.510092 -0.011873
Head 7.842703 -4.106582 2.434249
LeftShoulder -8.740460 -36.652010 16.083194
LeftArm 3.553294 7.359827 -12.790731
LeftForeArm -1.457043 -0.000000 -1.467284
LeftHand -9.764650 -0.000000 -8.462003
LeftHandThumb1 -26.253704 0.000000 33.147579
RightShoulder -9.196660 2.285127 -8.120582
RightArm 9.829117 33.339760 12.602738
RightForeArm -37.791767 -0.000000 4.394291
RightHand -5.885463 -0.000000 9.110718
RightHandThumb1 -24.326973 -0.000000 -32.862282
LeftUpLeg -0.112990 10.947650 1.407499
LeftLeg -6.359228 -0.000000 0.000000
LeftFoot -19.643180 29.662548 -10.917729
LeftToeBase 27.271820 -0.000000 -0.000000
RightUpLeg -0.700354 -8.446137 1.329845
RightLeg -3.369014 -0.000000 0.000000
RightFoot -20.491899 -27.487659 13.408286
RightToeBase 24.033651 -0.000000 -0.000000
70
root 18.583234 35.507175 -21.604085 -172.825259 -2.964556 -178.734162
Spine -17.304212 0.574709 -0.048122
Head 7.930802 -4.223547 2.461375
LeftShoulder -8.403181 -36.713542 15.543060
LeftArm 3.732900 7.316213 -13.244206
LeftForeArm -3.618104 -0.000000 -1.320636
LeftHand -9.707935 0.000000 -8.853354
LeftHandThumb1 -26.253704 0.000000 33.147579
RightShoulder -8.979710 2.203726 -7.920541
RightArm 10.337395 33.057929 12.874310
RightForeArm -37.481276 -0.000000 4.498127
RightHand -5.633432 -0.000000 9.067502
RightHandThumb1 -24.326973 -0.000000 -32.862282
LeftUpLeg -0.071333 10.924267 1.420574
LeftLeg -6.332697 -0.000000 0.000000
LeftFoot -19.634567 29.638126 -10.906637
LeftToeBase 27.315925 -0.000000 -0.000000
RightUpLeg -0.638087 -8.510308 1.324668
RightLeg -3.362157 -0.000000 0.000000
RightFoot -20.481146 -27.482830 13.410866
RightToeBase 23.992769 -0.000000 -0.000000
71
root 18.583689 35.508140 -21.596621 -172.908329 -3.009815 -178.736213
Spine -17.289118 0.668095 -0.090652
Head 8.030593 -4.356155 2.475792
LeftShoulder -8.104448 -36.684094 15.066442
LeftArm 3.928677 7.396986 -13.819244
LeftForeArm -5.979658 -0.000000 -1.062531
LeftHand -9.730884 -0.000000 -9.286703
LeftHandThumb1 -26.253704 0.000000 33.147579
RightShoulder -8.768575 2.186672 -7.721769
RightArm 10.844746 32.810883 13.128889
RightForeArm -37.333036 -0.000000 4.588925
RightHand -5.400052 -0.000000 9.052022
RightHandThumb1 -24.326973 -0.000000 -32.862282
LeftUpLeg -0.009069 10.921056 1.434993
LeftLeg -6.330457 -0.000000 0.000000
LeftFoot -19.606937 29.604940 -10.885012
LeftToeBase 27.269895 -0.000000 -0.000000
RightUpLeg -0.560015 -8.614980 1.321651
RightLeg -3.369862 -0.000000 0.000000
RightFoot -20.450929 -27.438020 13.397687
RightToeBase 23.972787 -0.000000 -0.000000
72
root 18.584232 35.509324 -21.582666 -173.008073 -3.074719 -178.735331
Spine -17.235854 0.718176 -0.108659
Head 8.091486 -4.546449 2.447923
LeftShoulder -7.782790 -36.674450 14.525420
LeftArm 4.124356 7.418767 -14.404714
LeftForeArm -8.137072 -0.000000 -0.816051
LeftHand -9.639770 -0.000000 -9.551929
LeftHandThumb1 -26.253704 0.000000 33.147579
RightShoulder -8.490109 2.217197 -7.519756
RightArm 11.304993 32.449717 13.350109
RightForeArm -37.131940 -0.000000 4.781688
RightHand -5.493222 -0.000000 9.072732
RightHandThumb1 -24.326973 -0.000000 -32.862282
LeftUpLeg 0.052056 10.879575 1.454894
LeftLeg -6.318025 -0.000000 0.000000
LeftFoot -19.575687 29.587317 -10.864456
LeftToeBase 27.285539 -0.000000 -0.000000
RightUpLeg -0.485349 -8.725595 1.322809
RightLeg -3.357651 -0.000000 0.000000
RightFoot -20.428270 -27.425622 13.373010
RightToeBase 24.002593 -0.000000 -0.000000
